<?xml version="1.0" encoding="UTF-8" standalone="no"?>
<!DOCTYPE svg PUBLIC "-//W3C//DTD SVG 1.0//EN" "http://www.w3.org/TR/2001/PR-SVG-20010719/DTD/svg10.dtd">
<svg width="62cm" height="32cm" viewBox="-936 -265 1231 629" xmlns="http://www.w3.org/2000/svg" xmlns:xlink="http://www.w3.org/1999/xlink">
  <g>
    <ellipse style="fill: none; fill-opacity:0; stroke-width: 4; stroke: #ff0000" cx="-55.0942" cy="283.469" rx="138.526" ry="60.8283"/>
    <text font-size="28.2222" style="fill: #000000;text-anchor:middle;font-family:sans-serif;font-style:normal;font-weight:normal" x="-55.0942" y="292.03">
      <tspan x="-55.0942" y="292.03">ProlongationENT</tspan>
    </text>
  </g>
  <g>
    <path style="fill: none; fill-opacity:0; stroke-width: 4; stroke: #add8e6" d="M -805.842 -157.593 C -1022.48,-88.7747 -975.454,141.134 -585.852,274.163"/>
    <polygon style="fill: #add8e6" points="-578.755,276.587 -589.834,278.087 -585.852,274.163 -586.602,268.624 "/>
    <polygon style="fill: none; fill-opacity:0; stroke-width: 4; stroke: #add8e6" points="-578.755,276.587 -589.834,278.087 -585.852,274.163 -586.602,268.624 "/>
  </g>
  <ellipse style="fill: none; fill-opacity:0; stroke-width: 4; stroke: #ff0000" cx="-24.255" cy="-31.9723" rx="207.621" ry="59.6439"/>
  <g>
    <ellipse style="fill: #ffffff" cx="-711.337" cy="-187.614" rx="118.489" ry="45.9399"/>
    <ellipse style="fill: none; fill-opacity:0; stroke-width: 6; stroke: #00ff00" cx="-711.337" cy="-187.614" rx="118.489" ry="45.9399"/>
  </g>
  <text font-size="33.8667" style="fill: #000000;text-anchor:middle;font-family:sans-serif;font-style:normal;font-weight:normal" x="-711.336" y="-233.554">
    <tspan x="-711.336" y="-233.554"></tspan>
    <tspan x="-711.336" y="-191.221">CAS</tspan>
  </text>
  <g>
    <line style="fill: none; fill-opacity:0; stroke-width: 2; stroke: #000000" x1="-161.919" y1="-56.5307" x2="-291.463" y2="-156.701"/>
    <polygon style="fill: #000000" points="-297.397,-161.289 -286.427,-159.127 -291.463,-156.701 -292.544,-151.216 "/>
    <polygon style="fill: none; fill-opacity:0; stroke-width: 2; stroke: #000000" points="-297.397,-161.289 -286.427,-159.127 -291.463,-156.701 -292.544,-151.216 "/>
  </g>
  <g>
    <rect style="fill: none; fill-opacity:0; stroke-width: 2.35099e-37; stroke: #ffffff" x="25.5418" y="-53.4014" width="131.75" height="40.2222"/>
    <text font-size="22.5778" style="fill: #000000;text-anchor:middle;font-family:sans-serif;font-style:normal;font-weight:normal" x="91.4168" y="-26.4014">
      <tspan x="91.4168" y="-26.4014">grouper UI</tspan>
    </text>
  </g>
  <g>
    <line style="fill: none; fill-opacity:0; stroke-width: 2; stroke: #000000" x1="25.5451" y1="-33.1698" x2="-58.3191" y2="-33.0164"/>
    <polygon style="fill: #000000" points="-65.8191,-33.0027 -55.8282,-38.021 -58.3191,-33.0164 -55.81,-28.021 "/>
    <polygon style="fill: none; fill-opacity:0; stroke-width: 2; stroke: #000000" points="-65.8191,-33.0027 -55.8282,-38.021 -58.3191,-33.0164 -55.81,-28.021 "/>
  </g>
  <g>
    <rect style="fill: none; fill-opacity:0; stroke-width: 2.35099e-37; stroke: #ffffff" x="-194.612" y="-56.5218" width="126.55" height="47.2778"/>
    <text font-size="28.2222" style="fill: #000000;text-anchor:middle;font-family:sans-serif;font-style:normal;font-weight:normal" x="-131.337" y="-24.3218">
      <tspan x="-131.337" y="-24.3218">grouper</tspan>
    </text>
  </g>
  <g>
    <ellipse style="fill: none; fill-opacity:0; stroke-width: 4; stroke: #00ff00" cx="-346.107" cy="-198.955" rx="90.5668" ry="40.5334"/>
    <text font-size="33.8667" style="fill: #000000;text-anchor:middle;font-family:sans-serif;font-style:normal;font-weight:normal" x="-346.107" y="-188.721">
      <tspan x="-346.107" y="-188.721">LDAP</tspan>
    </text>
  </g>
  <g>
    <line style="fill: none; fill-opacity:0; stroke-width: 2; stroke: #000000" x1="-388.031" y1="-161.406" x2="-535.875" y2="-28.5043"/>
    <polygon style="fill: #000000" points="-541.452,-23.4904 -537.358,-33.8941 -535.875,-28.5043 -530.673,-26.4572 "/>
    <polygon style="fill: none; fill-opacity:0; stroke-width: 2; stroke: #000000" points="-541.452,-23.4904 -537.358,-33.8941 -535.875,-28.5043 -530.673,-26.4572 "/>
  </g>
  <g>
    <line style="fill: none; fill-opacity:0; stroke-width: 2; stroke: #000000" x1="-179.485" y1="103.246" x2="-462.145" y2="52.9644"/>
    <polygon style="fill: #000000" points="-469.529,51.6508 -458.808,48.4795 -462.145,52.9644 -460.559,58.3249 "/>
    <polygon style="fill: none; fill-opacity:0; stroke-width: 2; stroke: #000000" points="-469.529,51.6508 -458.808,48.4795 -462.145,52.9644 -460.559,58.3249 "/>
  </g>
  <g>
    <line style="fill: none; fill-opacity:0; stroke-width: 4; stroke: #add8e6" x1="-391.676" y1="229.404" x2="-446.396" y2="264.552"/>
    <polygon style="fill: #add8e6" points="-452.706,268.606 -446.995,258.994 -446.396,264.552 -441.59,267.408 "/>
    <polygon style="fill: none; fill-opacity:0; stroke-width: 4; stroke: #add8e6" points="-452.706,268.606 -446.995,258.994 -446.396,264.552 -441.59,267.408 "/>
  </g>
  <text font-size="12.8" style="fill: #000000;text-anchor:start;font-family:sans-serif;font-style:normal;font-weight:normal" x="-283.554" y="117.401">
    <tspan x="-283.554" y="117.401"></tspan>
  </text>
  <text font-size="12.8" style="fill: #000000;text-anchor:start;font-family:sans-serif;font-style:normal;font-weight:normal" x="-283.554" y="117.401">
    <tspan x="-283.554" y="117.401"></tspan>
  </text>
  <g>
    <line style="fill: none; fill-opacity:0; stroke-width: 2.35099e-37; stroke: #ffffff" x1="17.013" y1="-236.77" x2="56.0797" y2="-236.77"/>
    <line style="fill: none; fill-opacity:0; stroke-width: 2.35099e-37; stroke: #ffffff" x1="17.013" y1="-170.437" x2="56.0797" y2="-170.437"/>
    <path style="fill: none; fill-opacity:0; stroke-width: 2.35099e-37; stroke: #ffffff" d="M 17.013,-236.77 A 33.1667,33.1667 0 0 0 -16.1537,-203.603"/>
    <path style="fill: none; fill-opacity:0; stroke-width: 2.35099e-37; stroke: #ffffff" d="M 89.2463,-203.603 A 33.1667,33.1667 0 0 0 56.0797,-236.77"/>
    <line style="fill: none; fill-opacity:0; stroke-width: 2.35099e-37; stroke: #ffffff" x1="-16.1537" y1="-203.603" x2="-16.1537" y2="-203.603"/>
    <line style="fill: none; fill-opacity:0; stroke-width: 2.35099e-37; stroke: #ffffff" x1="89.2463" y1="-203.603" x2="89.2463" y2="-203.603"/>
    <path style="fill: none; fill-opacity:0; stroke-width: 2.35099e-37; stroke: #ffffff" d="M -16.1537,-203.603 A 33.1667,33.1667 0 0 0 17.013,-170.437"/>
    <path style="fill: none; fill-opacity:0; stroke-width: 2.35099e-37; stroke: #ffffff" d="M 56.0797,-170.437 A 33.1667,33.1667 0 0 0 89.2463,-203.603"/>
    <text font-size="33.8667" style="fill: #000000;text-anchor:middle;font-family:sans-serif;font-style:normal;font-weight:normal" x="36.5463" y="-193.37">
      <tspan x="36.5463" y="-193.37">apps</tspan>
    </text>
  </g>
  <g>
    <line style="fill: none; fill-opacity:0; stroke-width: 2; stroke: #000000" x1="-253.561" y1="-199.932" x2="-25.8891" y2="-202.748"/>
    <polygon style="fill: #000000" points="-18.3897,-202.841 -28.3271,-197.718 -25.8891,-202.748 -28.4508,-207.717 "/>
    <polygon style="fill: none; fill-opacity:0; stroke-width: 2; stroke: #000000" points="-18.3897,-202.841 -28.3271,-197.718 -25.8891,-202.748 -28.4508,-207.717 "/>
  </g>
  <g>
    <path style="fill: none; fill-opacity:0; stroke-width: 2; stroke: #000000" d="M -15.895,-229.375 A 1192.64,1192.64 0 0 0 -617.822,-218.099"/>
    <polygon style="fill: #000000" points="-8.6089,-227.597 -19.522,-225.168 -15.8857,-229.414 -17.1005,-234.87 "/>
    <polygon style="fill: none; fill-opacity:0; stroke-width: 2; stroke: #000000" points="-8.6089,-227.597 -19.522,-225.168 -15.8857,-229.414 -17.1005,-234.87 "/>
  </g>
  <g>
    <path style="fill: none; fill-opacity:0; stroke-width: 2; stroke: #000000" d="M -627.552,-155.129 A 1891.86,1891.86 0 0 0 -172.277,87.5153"/>
    <polygon style="fill: #000000" points="-165.235,90.0947 -176.34,91.3876 -172.286,87.5388 -172.932,81.9862 "/>
    <polygon style="fill: none; fill-opacity:0; stroke-width: 2; stroke: #000000" points="-165.235,90.0947 -176.34,91.3876 -172.286,87.5388 -172.932,81.9862 "/>
  </g>
  <g>
    <rect style="fill: #ffffff" x="-867.212" y="-10.343" width="65.4" height="43.2778"/>
    <rect style="fill: none; fill-opacity:0; stroke-width: 2.35099e-37; stroke: #ffffff" x="-867.212" y="-10.343" width="65.4" height="43.2778"/>
    <text font-size="28.2222" style="fill: #000000;text-anchor:middle;font-family:sans-serif;font-style:normal;font-weight:normal" x="-834.512" y="19.857">
      <tspan x="-834.512" y="19.857">csof</tspan>
    </text>
  </g>
  <g>
    <line style="fill: none; fill-opacity:0; stroke-width: 2; stroke: #000000" x1="-736.792" y1="18.3386" x2="-792.106" y2="14.3259"/>
    <polygon style="fill: #000000" points="-799.587,13.7832 -789.251,9.51986 -792.106,14.3259 -789.975,19.4937 "/>
    <polygon style="fill: none; fill-opacity:0; stroke-width: 2; stroke: #000000" points="-799.587,13.7832 -789.251,9.51986 -792.106,14.3259 -789.975,19.4937 "/>
  </g>
  <g>
    <rect style="fill: none; fill-opacity:0; stroke-width: 2.35099e-37; stroke: #ffffff" x="-783.292" y="-189.009" width="95.75" height="29.1667"/>
    <text font-size="16.9333" style="fill: #000000;text-anchor:middle;font-family:sans-serif;font-style:normal;font-weight:normal" x="-735.417" y="-169.259">
      <tspan x="-735.417" y="-169.259">proxy CAS</tspan>
    </text>
  </g>
  <g>
    <rect style="fill: none; fill-opacity:0; stroke-width: 2.35099e-37; stroke: #ffffff" x="-35.6818" y="-193.539" width="71.65" height="29.1667"/>
    <text font-size="16.9333" style="fill: #000000;text-anchor:middle;font-family:sans-serif;font-style:normal;font-weight:normal" x="0.1432" y="-173.789">
      <tspan x="0.1432" y="-173.789">SQL DB</tspan>
    </text>
  </g>
  <g>
    <path style="fill: none; fill-opacity:0; stroke-width: 2; stroke: #000000" d="M -5.81329 -166.787 C -80.3499,-14.5191 -93.4019,-64.1669 -277.561,-162.393"/>
    <polygon style="fill: #000000" points="-284.179,-165.922 -273.002,-165.628 -277.561,-162.393 -277.708,-156.804 "/>
    <polygon style="fill: none; fill-opacity:0; stroke-width: 2; stroke: #000000" points="-284.179,-165.922 -273.002,-165.628 -277.561,-162.393 -277.708,-156.804 "/>
  </g>
  <g>
    <rect style="fill: #ffffff" x="-147.525" y="-75.9244" width="141.683" height="29.1667"/>
    <path style="fill: #ffffff" d="M -147.525,-75.9244 A 14.5833,14.5833 0 0 0 -162.109,-61.3411 L -147.525,-61.3411 z"/>
    <path style="fill: #ffffff" d="M 8.7414,-61.3411 A 14.5833,14.5833 0 0 0 -5.84193,-75.9244 L -5.84193,-61.3411 z"/>
    <rect style="fill: #ffffff" x="-162.109" y="-61.3411" width="170.85" height="0"/>
    <path style="fill: #ffffff" d="M -162.109,-61.3411 A 14.5833,14.5833 0 0 0 -147.525,-46.7577 L -147.525,-61.3411 z"/>
    <path style="fill: #ffffff" d="M -5.84193,-46.7577 A 14.5833,14.5833 0 0 0 8.7414,-61.3411 L -5.84193,-61.3411 z"/>
    <line style="fill: none; fill-opacity:0; stroke-width: 2.35099e-37; stroke: #ffffff" x1="-147.525" y1="-75.9244" x2="-5.84193" y2="-75.9244"/>
    <line style="fill: none; fill-opacity:0; stroke-width: 2.35099e-37; stroke: #ffffff" x1="-147.525" y1="-46.7577" x2="-5.84193" y2="-46.7577"/>
    <path style="fill: none; fill-opacity:0; stroke-width: 2.35099e-37; stroke: #ffffff" d="M -147.525,-75.9244 A 14.5833,14.5833 0 0 0 -162.109,-61.3411"/>
    <path style="fill: none; fill-opacity:0; stroke-width: 2.35099e-37; stroke: #ffffff" d="M 8.7414,-61.3411 A 14.5833,14.5833 0 0 0 -5.84193,-75.9244"/>
    <line style="fill: none; fill-opacity:0; stroke-width: 2.35099e-37; stroke: #ffffff" x1="-162.109" y1="-61.3411" x2="-162.109" y2="-61.3411"/>
    <line style="fill: none; fill-opacity:0; stroke-width: 2.35099e-37; stroke: #ffffff" x1="8.7414" y1="-61.3411" x2="8.7414" y2="-61.3411"/>
    <path style="fill: none; fill-opacity:0; stroke-width: 2.35099e-37; stroke: #ffffff" d="M -162.109,-61.3411 A 14.5833,14.5833 0 0 0 -147.525,-46.7577"/>
    <path style="fill: none; fill-opacity:0; stroke-width: 2.35099e-37; stroke: #ffffff" d="M -5.84193,-46.7577 A 14.5833,14.5833 0 0 0 8.7414,-61.3411"/>
    <text font-size="16.9333" style="fill: #000000;text-anchor:middle;font-family:sans-serif;font-style:normal;font-weight:normal" x="-76.6836" y="-56.1744">
      <tspan x="-76.6836" y="-56.1744">grouper-loader</tspan>
    </text>
  </g>
  <g>
    <path style="fill: none; fill-opacity:0; stroke-width: 2; stroke: #000000" d="M -700.558,-138.928 A 380.932,380.932 0 0 0 -650.191,-31.7733"/>
    <polygon style="fill: #000000" points="-645.93,-25.6037 -655.815,-30.8276 -650.294,-31.7035 -647.682,-36.646 "/>
    <polygon style="fill: none; fill-opacity:0; stroke-width: 2; stroke: #000000" points="-645.93,-25.6037 -655.815,-30.8276 -650.294,-31.7035 -647.682,-36.646 "/>
  </g>
  <g>
    <path style="fill: none; fill-opacity:0; stroke-width: 4; stroke: #add8e6" d="M -405.385,285.777 A 868.085,868.085 0 0 0 -129.137,171.213"/>
    <polygon style="fill: #add8e6" points="-412.708,287.394 -403.944,280.452 -405.367,285.858 -401.896,290.24 "/>
    <polygon style="fill: none; fill-opacity:0; stroke-width: 4; stroke: #add8e6" points="-412.708,287.394 -403.944,280.452 -405.367,285.858 -401.896,290.24 "/>
  </g>
  <g>
    <ellipse style="fill: none; fill-opacity:0; stroke-width: 4; stroke: #ff0000" cx="-599.306" cy="28.716" rx="138.036" ry="53.807"/>
    <text font-size="28.2222" style="fill: #000000;text-anchor:middle;font-family:sans-serif;font-style:normal;font-weight:normal" x="-599.306" y="37.2771">
      <tspan x="-599.306" y="37.2771">uPortal3</tspan>
    </text>
  </g>
  <g>
    <ellipse style="fill: none; fill-opacity:0; stroke-width: 4; stroke: #add8e6" cx="-504.391" cy="301.979" rx="92.5586" ry="34.4865"/>
    <text font-size="28.2222" style="fill: #000000;text-anchor:middle;font-family:sans-serif;font-style:normal;font-weight:normal" x="-504.391" y="310.54">
      <tspan x="-504.391" y="310.54">Agimus</tspan>
    </text>
  </g>
  <g>
    <line style="fill: none; fill-opacity:0; stroke-width: 4; stroke-dasharray: 20; stroke: #add8e6" x1="-359.305" y1="-157.391" x2="-489.415" y2="254.399"/>
    <polygon style="fill: #add8e6" points="-491.674,261.551 -493.429,250.509 -489.415,254.399 -483.894,253.522 "/>
    <polygon style="fill: none; fill-opacity:0; stroke-width: 4; stroke: #add8e6" points="-491.674,261.551 -493.429,250.509 -489.415,254.399 -483.894,253.522 "/>
  </g>
  <g>
    <ellipse style="fill: none; fill-opacity:0; stroke-width: 4; stroke: #ff0000" cx="-331.933" cy="191.266" rx="81.803" ry="52.5996"/>
    <text font-size="22.5778" style="fill: #000000;text-anchor:middle;font-family:sans-serif;font-style:normal;font-weight:normal" x="-331.933" y="198.155">
      <tspan x="-331.933" y="198.155">accueil</tspan>
    </text>
  </g>
  <g>
    <line style="fill: none; fill-opacity:0; stroke-width: 2; stroke: #000000" x1="-172.49" y1="151.408" x2="-244.331" y2="169.303"/>
    <polygon style="fill: #000000" points="-251.609,171.116 -243.114,163.847 -244.331,169.303 -240.697,173.551 "/>
    <polygon style="fill: none; fill-opacity:0; stroke-width: 2; stroke: #000000" points="-251.609,171.116 -243.114,163.847 -244.331,169.303 -240.697,173.551 "/>
  </g>
  <g>
    <ellipse style="fill: none; fill-opacity:0; stroke-width: 4; stroke: #ff0000" cx="-62.3639" cy="124.197" rx="124.654" ry="53.812"/>
    <text font-size="28.2222" style="fill: #000000;text-anchor:middle;font-family:sans-serif;font-style:normal;font-weight:normal" x="-62.3639" y="132.759">
      <tspan x="-62.3639" y="132.759">EsupUserApps</tspan>
    </text>
  </g>
  <g>
    <line style="fill: none; fill-opacity:0; stroke-width: 2.35099e-37; stroke: #ffffff" x1="-117.23" y1="80.4266" x2="-49.9074" y2="80.4266"/>
    <line style="fill: none; fill-opacity:0; stroke-width: 2.35099e-37; stroke: #ffffff" x1="-117.23" y1="117.366" x2="-49.9074" y2="117.366"/>
    <path style="fill: none; fill-opacity:0; stroke-width: 2.35099e-37; stroke: #ffffff" d="M -117.23,80.4266 A 18.4699,18.4699 0 0 0 -135.7,98.8965"/>
    <path style="fill: none; fill-opacity:0; stroke-width: 2.35099e-37; stroke: #ffffff" d="M -31.4375,98.8965 A 18.4699,18.4699 0 0 0 -49.9074,80.4266"/>
    <line style="fill: none; fill-opacity:0; stroke-width: 2.35099e-37; stroke: #ffffff" x1="-135.7" y1="98.8965" x2="-135.7" y2="98.8965"/>
    <line style="fill: none; fill-opacity:0; stroke-width: 2.35099e-37; stroke: #ffffff" x1="-31.4375" y1="98.8965" x2="-31.4375" y2="98.8965"/>
    <path style="fill: none; fill-opacity:0; stroke-width: 2.35099e-37; stroke: #ffffff" d="M -135.7,98.8965 A 18.4699,18.4699 0 0 0 -117.23,117.366"/>
    <path style="fill: none; fill-opacity:0; stroke-width: 2.35099e-37; stroke: #ffffff" d="M -49.9074,117.366 A 18.4699,18.4699 0 0 0 -31.4375,98.8965"/>
    <text font-size="22.5778" style="fill: #000000;text-anchor:middle;font-family:sans-serif;font-style:normal;font-weight:normal" x="-83.5685" y="105.785">
      <tspan x="-83.5685" y="105.785">canaux</tspan>
    </text>
  </g>
  <g>
    <rect style="fill: none; fill-opacity:0; stroke-width: 2.35099e-37; stroke: #ffffff" x="-61.2944" y="128.727" width="96.05" height="43.2778"/>
    <text font-size="22.5778" style="fill: #000000;text-anchor:middle;font-family:sans-serif;font-style:normal;font-weight:normal" x="-13.2694" y="157.255">
      <tspan x="-13.2694" y="157.255">layout</tspan>
    </text>
  </g>
  <g>
    <rect style="fill: none; fill-opacity:0; stroke-width: 2.35099e-37; stroke: #ffffff" x="-132.007" y="239.956" width="62.8" height="29.1667"/>
    <text font-size="16.9333" style="fill: #000000;text-anchor:middle;font-family:sans-serif;font-style:normal;font-weight:normal" x="-100.607" y="259.706">
      <tspan x="-100.607" y="259.706">thème</tspan>
    </text>
  </g>
  <g>
    <rect style="fill: none; fill-opacity:0; stroke-width: 2.35099e-37; stroke: #ffffff" x="-54.2837" y="299.787" width="56.45" height="29.1667"/>
    <text font-size="16.9333" style="fill: #000000;text-anchor:middle;font-family:sans-serif;font-style:normal;font-weight:normal" x="-26.0587" y="319.537">
      <tspan x="-26.0587" y="319.537">menu</tspan>
    </text>
  </g>
  <g>
    <line style="fill: none; fill-opacity:0; stroke-width: 2; stroke: #000000" x1="-150.5" y1="86.152" x2="-491.583" y2="-153.199"/>
    <polygon style="fill: #000000" points="-497.722,-157.507 -486.665,-155.855 -491.583,-153.199 -492.409,-147.67 "/>
    <polygon style="fill: none; fill-opacity:0; stroke-width: 2; stroke: #000000" points="-497.722,-157.507 -486.665,-155.855 -491.583,-153.199 -492.409,-147.67 "/>
  </g>
  <g>
    <path style="fill: none; fill-opacity:0; stroke-width: 2; stroke: #000000" d="M -335.233 -158.39 C -297.445,-17.4359 -226.422,-10.7345 -129.341,69.1108"/>
    <polygon style="fill: #000000" points="-123.549,73.8749 -134.448,71.3844 -129.341,69.1108 -128.096,63.6611 "/>
    <polygon style="fill: none; fill-opacity:0; stroke-width: 2; stroke: #000000" points="-123.549,73.8749 -134.448,71.3844 -129.341,69.1108 -128.096,63.6611 "/>
  </g>
  <g>
    <rect style="fill: none; fill-opacity:0; stroke-width: 2.35099e-37; stroke: #ffffff" x="-587.028" y="-195.011" width="123.15" height="36.2222"/>
    <text font-size="11.2889" style="fill: #000000;text-anchor:start;font-family:sans-serif;font-style:normal;font-weight:normal" x="-583.028" y="-180.511">
      <tspan x="-583.028" y="-180.511">impersonate</tspan>
      <tspan x="-583.028" y="-166.4">cas-apache-wrapper</tspan>
    </text>
  </g>
  <g>
    <path style="fill: none; fill-opacity:0; stroke-width: 2; stroke: #000000" d="M -416.954,288.43 A 862.048,862.048 0 0 0 -132.755,173.668"/>
    <polyline style="fill: none; fill-opacity:0; stroke-width: 2; stroke: #000000" points="-136.606,182.068 -130.863,172.475 -141.983,173.637 "/>
  </g>
  <g>
    <line style="fill: none; fill-opacity:0; stroke-width: 2; stroke: #000000" x1="-59.8188" y1="179.97" x2="-58.1521" y2="216.482"/>
    <polyline style="fill: none; fill-opacity:0; stroke-width: 2; stroke: #000000" points="-63.5009,208.954 -58.0501,218.716 -53.5113,208.498 "/>
  </g>
  <g>
    <line style="fill: none; fill-opacity:0; stroke-width: 2; stroke: #000000" x1="-167.366" y1="246.076" x2="-253.175" y2="217.497"/>
    <polyline style="fill: none; fill-opacity:0; stroke-width: 2; stroke: #000000" points="-244.229,215.206 -255.296,216.79 -247.388,224.694 "/>
  </g>
  <g>
    <path style="fill: none; fill-opacity:0; stroke-width: 2; stroke: #000000" d="M 71.1084 256.164 C 310.636,204.34 354.279,-24.0997 97.7116,-169.048"/>
    <polygon style="fill: #000000" points="91.1816,-172.737 102.348,-172.171 97.7116,-169.048 97.4288,-163.465 "/>
    <polygon style="fill: none; fill-opacity:0; stroke-width: 2; stroke: #000000" points="91.1816,-172.737 102.348,-172.171 97.7116,-169.048 97.4288,-163.465 "/>
  </g>
  <g>
    <path style="fill: none; fill-opacity:0; stroke-width: 4; stroke: #add8e6" d="M 89.2482 -181.775 C 440.796,-36.172 379.975,513.067 -412.865,323.825"/>
    <polygon style="fill: #add8e6" points="-420.161,322.083 -409.273,319.542 -412.865,323.825 -411.595,329.269 "/>
    <polygon style="fill: none; fill-opacity:0; stroke-width: 4; stroke: #add8e6" points="-420.161,322.083 -409.273,319.542 -412.865,323.825 -411.595,329.269 "/>
  </g>
</svg>
