<?xml version="1.0" encoding="UTF-8" standalone="no"?>
<!DOCTYPE svg PUBLIC "-//W3C//DTD SVG 1.0//EN" "http://www.w3.org/TR/2001/PR-SVG-20010719/DTD/svg10.dtd">
<svg width="60cm" height="31cm" viewBox="-936 -265 1189 604" xmlns="http://www.w3.org/2000/svg" xmlns:xlink="http://www.w3.org/1999/xlink">
  <g>
    <path style="fill: none; fill-opacity:0; stroke-width: 4; stroke: #add8e6" d="M -805.842 -157.593 C -1022.48,-88.7747 -975.454,141.134 -585.852,274.163"/>
    <polygon style="fill: #add8e6" points="-578.755,276.587 -589.834,278.087 -585.852,274.163 -586.602,268.624 "/>
    <polygon style="fill: none; fill-opacity:0; stroke-width: 4; stroke: #add8e6" points="-578.755,276.587 -589.834,278.087 -585.852,274.163 -586.602,268.624 "/>
  </g>
  <ellipse style="fill: none; fill-opacity:0; stroke-width: 4; stroke: #ff0000" cx="-24.255" cy="-31.9723" rx="207.621" ry="59.6439"/>
  <g>
    <ellipse style="fill: #ffffff" cx="-711.337" cy="-187.614" rx="118.489" ry="45.9399"/>
    <ellipse style="fill: none; fill-opacity:0; stroke-width: 6; stroke: #00ff00" cx="-711.337" cy="-187.614" rx="118.489" ry="45.9399"/>
  </g>
  <text font-size="33.8667" style="fill: #000000;text-anchor:middle;font-family:sans-serif;font-style:normal;font-weight:normal" x="-711.336" y="-233.554">
    <tspan x="-711.336" y="-233.554"></tspan>
    <tspan x="-711.336" y="-191.221">CAS</tspan>
  </text>
  <g>
    <line style="fill: none; fill-opacity:0; stroke-width: 2; stroke: #000000" x1="-161.919" y1="-56.5307" x2="-291.463" y2="-156.701"/>
    <polygon style="fill: #000000" points="-297.397,-161.289 -286.427,-159.127 -291.463,-156.701 -292.544,-151.216 "/>
    <polygon style="fill: none; fill-opacity:0; stroke-width: 2; stroke: #000000" points="-297.397,-161.289 -286.427,-159.127 -291.463,-156.701 -292.544,-151.216 "/>
  </g>
  <g>
    <rect style="fill: none; fill-opacity:0; stroke-width: 2.35099e-37; stroke: #ffffff" x="25.5418" y="-53.4014" width="131.75" height="40.2222"/>
    <text font-size="22.5778" style="fill: #000000;text-anchor:middle;font-family:sans-serif;font-style:normal;font-weight:normal" x="91.4168" y="-26.4014">
      <tspan x="91.4168" y="-26.4014">grouper UI</tspan>
    </text>
  </g>
  <g>
    <line style="fill: none; fill-opacity:0; stroke-width: 2; stroke: #000000" x1="25.5451" y1="-33.1698" x2="-58.3191" y2="-33.0164"/>
    <polygon style="fill: #000000" points="-65.8191,-33.0027 -55.8282,-38.021 -58.3191,-33.0164 -55.81,-28.021 "/>
    <polygon style="fill: none; fill-opacity:0; stroke-width: 2; stroke: #000000" points="-65.8191,-33.0027 -55.8282,-38.021 -58.3191,-33.0164 -55.81,-28.021 "/>
  </g>
  <g>
    <rect style="fill: none; fill-opacity:0; stroke-width: 2.35099e-37; stroke: #ffffff" x="-194.612" y="-56.5218" width="126.55" height="47.2778"/>
    <text font-size="28.2222" style="fill: #000000;text-anchor:middle;font-family:sans-serif;font-style:normal;font-weight:normal" x="-131.337" y="-24.3218">
      <tspan x="-131.337" y="-24.3218">grouper</tspan>
    </text>
  </g>
  <g>
    <ellipse style="fill: none; fill-opacity:0; stroke-width: 4; stroke: #00ff00" cx="-346.107" cy="-198.955" rx="90.5668" ry="40.5334"/>
    <text font-size="33.8667" style="fill: #000000;text-anchor:middle;font-family:sans-serif;font-style:normal;font-weight:normal" x="-346.107" y="-188.721">
      <tspan x="-346.107" y="-188.721">LDAP</tspan>
    </text>
  </g>
  <g>
    <line style="fill: none; fill-opacity:0; stroke-width: 2; stroke: #000000" x1="-388.031" y1="-161.406" x2="-535.875" y2="-28.5043"/>
    <polygon style="fill: #000000" points="-541.452,-23.4904 -537.358,-33.8941 -535.875,-28.5043 -530.673,-26.4572 "/>
    <polygon style="fill: none; fill-opacity:0; stroke-width: 2; stroke: #000000" points="-541.452,-23.4904 -537.358,-33.8941 -535.875,-28.5043 -530.673,-26.4572 "/>
  </g>
  <g>
    <line style="fill: none; fill-opacity:0; stroke-width: 2; stroke: #000000" x1="-179.491" y1="146.674" x2="-475.916" y2="63.2951"/>
    <polygon style="fill: #000000" points="-483.136,61.2643 -472.156,59.1588 -475.916,63.2951 -474.863,68.7852 "/>
    <polygon style="fill: none; fill-opacity:0; stroke-width: 2; stroke: #000000" points="-483.136,61.2643 -472.156,59.1588 -475.916,63.2951 -474.863,68.7852 "/>
  </g>
  <g>
    <line style="fill: none; fill-opacity:0; stroke-width: 4; stroke: #add8e6" x1="-391.676" y1="229.404" x2="-446.396" y2="264.552"/>
    <polygon style="fill: #add8e6" points="-452.706,268.606 -446.995,258.994 -446.396,264.552 -441.59,267.408 "/>
    <polygon style="fill: none; fill-opacity:0; stroke-width: 4; stroke: #add8e6" points="-452.706,268.606 -446.995,258.994 -446.396,264.552 -441.59,267.408 "/>
  </g>
  <text font-size="12.8" style="fill: #000000;text-anchor:start;font-family:sans-serif;font-style:normal;font-weight:normal" x="-283.554" y="117.401">
    <tspan x="-283.554" y="117.401"></tspan>
  </text>
  <text font-size="12.8" style="fill: #000000;text-anchor:start;font-family:sans-serif;font-style:normal;font-weight:normal" x="-283.554" y="117.401">
    <tspan x="-283.554" y="117.401"></tspan>
  </text>
  <g>
    <line style="fill: none; fill-opacity:0; stroke-width: 2.35099e-37; stroke: #ffffff" x1="17.013" y1="-236.77" x2="56.0797" y2="-236.77"/>
    <line style="fill: none; fill-opacity:0; stroke-width: 2.35099e-37; stroke: #ffffff" x1="17.013" y1="-170.437" x2="56.0797" y2="-170.437"/>
    <path style="fill: none; fill-opacity:0; stroke-width: 2.35099e-37; stroke: #ffffff" d="M 17.013,-236.77 A 33.1667,33.1667 0 0 0 -16.1537,-203.603"/>
    <path style="fill: none; fill-opacity:0; stroke-width: 2.35099e-37; stroke: #ffffff" d="M 89.2463,-203.603 A 33.1667,33.1667 0 0 0 56.0797,-236.77"/>
    <line style="fill: none; fill-opacity:0; stroke-width: 2.35099e-37; stroke: #ffffff" x1="-16.1537" y1="-203.603" x2="-16.1537" y2="-203.603"/>
    <line style="fill: none; fill-opacity:0; stroke-width: 2.35099e-37; stroke: #ffffff" x1="89.2463" y1="-203.603" x2="89.2463" y2="-203.603"/>
    <path style="fill: none; fill-opacity:0; stroke-width: 2.35099e-37; stroke: #ffffff" d="M -16.1537,-203.603 A 33.1667,33.1667 0 0 0 17.013,-170.437"/>
    <path style="fill: none; fill-opacity:0; stroke-width: 2.35099e-37; stroke: #ffffff" d="M 56.0797,-170.437 A 33.1667,33.1667 0 0 0 89.2463,-203.603"/>
    <text font-size="33.8667" style="fill: #000000;text-anchor:middle;font-family:sans-serif;font-style:normal;font-weight:normal" x="36.5463" y="-193.37">
      <tspan x="36.5463" y="-193.37">apps</tspan>
    </text>
  </g>
  <g>
    <line style="fill: none; fill-opacity:0; stroke-width: 2; stroke: #000000" x1="-253.561" y1="-199.932" x2="-25.8891" y2="-202.748"/>
    <polygon style="fill: #000000" points="-18.3897,-202.841 -28.3271,-197.718 -25.8891,-202.748 -28.4508,-207.717 "/>
    <polygon style="fill: none; fill-opacity:0; stroke-width: 2; stroke: #000000" points="-18.3897,-202.841 -28.3271,-197.718 -25.8891,-202.748 -28.4508,-207.717 "/>
  </g>
  <g>
    <path style="fill: none; fill-opacity:0; stroke-width: 2; stroke: #000000" d="M -15.9357,-229.203 A 1268.35,1268.35 0 0 0 -615.648,-217.052"/>
    <polygon style="fill: #000000" points="-8.61851,-227.557 -19.485,-224.927 -15.9276,-229.239 -17.2428,-234.672 "/>
    <polygon style="fill: none; fill-opacity:0; stroke-width: 2; stroke: #000000" points="-8.61851,-227.557 -19.485,-224.927 -15.9276,-229.239 -17.2428,-234.672 "/>
  </g>
  <g>
    <path style="fill: none; fill-opacity:0; stroke-width: 2; stroke: #000000" d="M -627.552,-155.129 A 2177.59,2177.59 0 0 0 -178.985,126.859"/>
    <polygon style="fill: #000000" points="-172.192,130.038 -183.367,130.36 -178.994,126.879 -179.155,121.291 "/>
    <polygon style="fill: none; fill-opacity:0; stroke-width: 2; stroke: #000000" points="-172.192,130.038 -183.367,130.36 -178.994,126.879 -179.155,121.291 "/>
  </g>
  <g>
    <rect style="fill: #ffffff" x="-867.212" y="-10.343" width="65.4" height="43.2778"/>
    <rect style="fill: none; fill-opacity:0; stroke-width: 2.35099e-37; stroke: #ffffff" x="-867.212" y="-10.343" width="65.4" height="43.2778"/>
    <text font-size="28.2222" style="fill: #000000;text-anchor:middle;font-family:sans-serif;font-style:normal;font-weight:normal" x="-834.512" y="19.857">
      <tspan x="-834.512" y="19.857">csof</tspan>
    </text>
  </g>
  <g>
    <line style="fill: none; fill-opacity:0; stroke-width: 2; stroke: #000000" x1="-736.792" y1="18.3386" x2="-792.106" y2="14.3259"/>
    <polygon style="fill: #000000" points="-799.587,13.7832 -789.251,9.51986 -792.106,14.3259 -789.975,19.4937 "/>
    <polygon style="fill: none; fill-opacity:0; stroke-width: 2; stroke: #000000" points="-799.587,13.7832 -789.251,9.51986 -792.106,14.3259 -789.975,19.4937 "/>
  </g>
  <g>
    <rect style="fill: none; fill-opacity:0; stroke-width: 2.35099e-37; stroke: #ffffff" x="-783.292" y="-189.009" width="95.75" height="29.1667"/>
    <text font-size="16.9333" style="fill: #000000;text-anchor:middle;font-family:sans-serif;font-style:normal;font-weight:normal" x="-735.417" y="-169.259">
      <tspan x="-735.417" y="-169.259">proxy CAS</tspan>
    </text>
  </g>
  <g>
    <rect style="fill: none; fill-opacity:0; stroke-width: 2.35099e-37; stroke: #ffffff" x="-35.6818" y="-193.539" width="71.65" height="29.1667"/>
    <text font-size="16.9333" style="fill: #000000;text-anchor:middle;font-family:sans-serif;font-style:normal;font-weight:normal" x="0.1432" y="-173.789">
      <tspan x="0.1432" y="-173.789">SQL DB</tspan>
    </text>
  </g>
  <g>
    <path style="fill: none; fill-opacity:0; stroke-width: 2; stroke: #000000" d="M -5.81329 -166.787 C -80.3499,-14.5191 -93.4019,-64.1669 -277.561,-162.393"/>
    <polygon style="fill: #000000" points="-284.179,-165.922 -273.002,-165.628 -277.561,-162.393 -277.708,-156.804 "/>
    <polygon style="fill: none; fill-opacity:0; stroke-width: 2; stroke: #000000" points="-284.179,-165.922 -273.002,-165.628 -277.561,-162.393 -277.708,-156.804 "/>
  </g>
  <g>
    <rect style="fill: #ffffff" x="-147.525" y="-75.9244" width="141.683" height="29.1667"/>
    <path style="fill: #ffffff" d="M -147.525,-75.9244 A 14.5833,14.5833 0 0 0 -162.109,-61.3411 L -147.525,-61.3411 z"/>
    <path style="fill: #ffffff" d="M 8.7414,-61.3411 A 14.5833,14.5833 0 0 0 -5.84193,-75.9244 L -5.84193,-61.3411 z"/>
    <rect style="fill: #ffffff" x="-162.109" y="-61.3411" width="170.85" height="0"/>
    <path style="fill: #ffffff" d="M -162.109,-61.3411 A 14.5833,14.5833 0 0 0 -147.525,-46.7577 L -147.525,-61.3411 z"/>
    <path style="fill: #ffffff" d="M -5.84193,-46.7577 A 14.5833,14.5833 0 0 0 8.7414,-61.3411 L -5.84193,-61.3411 z"/>
    <line style="fill: none; fill-opacity:0; stroke-width: 2.35099e-37; stroke: #ffffff" x1="-147.525" y1="-75.9244" x2="-5.84193" y2="-75.9244"/>
    <line style="fill: none; fill-opacity:0; stroke-width: 2.35099e-37; stroke: #ffffff" x1="-147.525" y1="-46.7577" x2="-5.84193" y2="-46.7577"/>
    <path style="fill: none; fill-opacity:0; stroke-width: 2.35099e-37; stroke: #ffffff" d="M -147.525,-75.9244 A 14.5833,14.5833 0 0 0 -162.109,-61.3411"/>
    <path style="fill: none; fill-opacity:0; stroke-width: 2.35099e-37; stroke: #ffffff" d="M 8.7414,-61.3411 A 14.5833,14.5833 0 0 0 -5.84193,-75.9244"/>
    <line style="fill: none; fill-opacity:0; stroke-width: 2.35099e-37; stroke: #ffffff" x1="-162.109" y1="-61.3411" x2="-162.109" y2="-61.3411"/>
    <line style="fill: none; fill-opacity:0; stroke-width: 2.35099e-37; stroke: #ffffff" x1="8.7414" y1="-61.3411" x2="8.7414" y2="-61.3411"/>
    <path style="fill: none; fill-opacity:0; stroke-width: 2.35099e-37; stroke: #ffffff" d="M -162.109,-61.3411 A 14.5833,14.5833 0 0 0 -147.525,-46.7577"/>
    <path style="fill: none; fill-opacity:0; stroke-width: 2.35099e-37; stroke: #ffffff" d="M -5.84193,-46.7577 A 14.5833,14.5833 0 0 0 8.7414,-61.3411"/>
    <text font-size="16.9333" style="fill: #000000;text-anchor:middle;font-family:sans-serif;font-style:normal;font-weight:normal" x="-76.6836" y="-56.1744">
      <tspan x="-76.6836" y="-56.1744">grouper-loader</tspan>
    </text>
  </g>
  <g>
    <path style="fill: none; fill-opacity:0; stroke-width: 2; stroke: #000000" d="M -700.558,-138.928 A 380.932,380.932 0 0 0 -650.191,-31.7733"/>
    <polygon style="fill: #000000" points="-645.93,-25.6037 -655.815,-30.8276 -650.294,-31.7035 -647.682,-36.646 "/>
    <polygon style="fill: none; fill-opacity:0; stroke-width: 2; stroke: #000000" points="-645.93,-25.6037 -655.815,-30.8276 -650.294,-31.7035 -647.682,-36.646 "/>
  </g>
  <g>
    <line style="fill: none; fill-opacity:0; stroke-width: 4; stroke: #add8e6" x1="-181.208" y1="220.132" x2="-414.386" y2="279.113"/>
    <polygon style="fill: #add8e6" points="-421.657,280.953 -413.189,273.653 -414.386,279.113 -410.736,283.348 "/>
    <polygon style="fill: none; fill-opacity:0; stroke-width: 4; stroke: #add8e6" points="-421.657,280.953 -413.189,273.653 -414.386,279.113 -410.736,283.348 "/>
  </g>
  <g>
    <ellipse style="fill: none; fill-opacity:0; stroke-width: 4; stroke: #ff0000" cx="-599.306" cy="28.716" rx="138.036" ry="53.807"/>
    <text font-size="28.2222" style="fill: #000000;text-anchor:middle;font-family:sans-serif;font-style:normal;font-weight:normal" x="-599.306" y="37.2771">
      <tspan x="-599.306" y="37.2771">uPortal3</tspan>
    </text>
  </g>
  <g>
    <ellipse style="fill: none; fill-opacity:0; stroke-width: 4; stroke: #add8e6" cx="-504.391" cy="301.979" rx="92.5586" ry="34.4865"/>
    <text font-size="28.2222" style="fill: #000000;text-anchor:middle;font-family:sans-serif;font-style:normal;font-weight:normal" x="-504.391" y="310.54">
      <tspan x="-504.391" y="310.54">Agimus</tspan>
    </text>
  </g>
  <g>
    <line style="fill: none; fill-opacity:0; stroke-width: 4; stroke-dasharray: 20; stroke: #add8e6" x1="-359.305" y1="-157.391" x2="-489.415" y2="254.399"/>
    <polygon style="fill: #add8e6" points="-491.674,261.551 -493.429,250.509 -489.415,254.399 -483.894,253.522 "/>
    <polygon style="fill: none; fill-opacity:0; stroke-width: 4; stroke: #add8e6" points="-491.674,261.551 -493.429,250.509 -489.415,254.399 -483.894,253.522 "/>
  </g>
  <g>
    <ellipse style="fill: none; fill-opacity:0; stroke-width: 4; stroke: #ff0000" cx="-331.933" cy="191.266" rx="81.803" ry="52.5996"/>
    <text font-size="22.5778" style="fill: #000000;text-anchor:middle;font-family:sans-serif;font-style:normal;font-weight:normal" x="-331.933" y="198.155">
      <tspan x="-331.933" y="198.155">accueil</tspan>
    </text>
  </g>
  <g>
    <path style="fill: none; fill-opacity:0; stroke-width: 2; stroke: #000000" d="M -239.698,201.277 A 769.803,769.803 0 0 0 -186.777,201.988"/>
    <polygon style="fill: #000000" points="-247.187,200.885 -236.903,196.499 -239.701,201.338 -237.507,206.48 "/>
    <polygon style="fill: none; fill-opacity:0; stroke-width: 2; stroke: #000000" points="-247.187,200.885 -236.903,196.499 -239.701,201.338 -237.507,206.48 "/>
  </g>
  <g>
    <path style="fill: none; fill-opacity:0; stroke-width: 2; stroke: #000000" d="M 83.3821 129.435 C 265.568,48.7139 344.576,-30.4138 88.0088,-175.362"/>
    <polygon style="fill: #000000" points="81.4789,-179.051 92.6449,-178.486 88.0088,-175.362 87.7261,-169.779 "/>
    <polygon style="fill: none; fill-opacity:0; stroke-width: 2; stroke: #000000" points="81.4789,-179.051 92.6449,-178.486 88.0088,-175.362 87.7261,-169.779 "/>
  </g>
  <g>
    <ellipse style="fill: none; fill-opacity:0; stroke-width: 4; stroke: #ff0000" cx="-42.7203" cy="185.308" rx="143.688" ry="110.249"/>
    <text font-size="28.2222" style="fill: #000000;text-anchor:middle;font-family:sans-serif;font-style:normal;font-weight:normal" x="-42.7203" y="193.869">
      <tspan x="-42.7203" y="193.869">ProlongationENT</tspan>
    </text>
  </g>
  <g>
    <line style="fill: none; fill-opacity:0; stroke-width: 2.35099e-37; stroke: #ffffff" x1="-125.061" y1="98.4266" x2="-57.7385" y2="98.4266"/>
    <line style="fill: none; fill-opacity:0; stroke-width: 2.35099e-37; stroke: #ffffff" x1="-125.061" y1="141.704" x2="-57.7385" y2="141.704"/>
    <path style="fill: none; fill-opacity:0; stroke-width: 2.35099e-37; stroke: #ffffff" d="M -125.061,98.4266 A 21.6389,21.6389 0 0 0 -146.7,120.065"/>
    <path style="fill: none; fill-opacity:0; stroke-width: 2.35099e-37; stroke: #ffffff" d="M -36.0996,120.065 A 21.6389,21.6389 0 0 0 -57.7385,98.4266"/>
    <line style="fill: none; fill-opacity:0; stroke-width: 2.35099e-37; stroke: #ffffff" x1="-146.7" y1="120.065" x2="-146.7" y2="120.065"/>
    <line style="fill: none; fill-opacity:0; stroke-width: 2.35099e-37; stroke: #ffffff" x1="-36.0996" y1="120.065" x2="-36.0996" y2="120.065"/>
    <path style="fill: none; fill-opacity:0; stroke-width: 2.35099e-37; stroke: #ffffff" d="M -146.7,120.065 A 21.6389,21.6389 0 0 0 -125.061,141.704"/>
    <path style="fill: none; fill-opacity:0; stroke-width: 2.35099e-37; stroke: #ffffff" d="M -57.7385,141.704 A 21.6389,21.6389 0 0 0 -36.0996,120.065"/>
    <text font-size="28.2222" style="fill: #000000;text-anchor:middle;font-family:sans-serif;font-style:normal;font-weight:normal" x="-91.3996" y="128.627">
      <tspan x="-91.3996" y="128.627">canaux</tspan>
    </text>
  </g>
  <g>
    <rect style="fill: none; fill-opacity:0; stroke-width: 2.35099e-37; stroke: #ffffff" x="-92.2944" y="126.727" width="96.05" height="43.2778"/>
    <text font-size="28.2222" style="fill: #000000;text-anchor:middle;font-family:sans-serif;font-style:normal;font-weight:normal" x="-44.2694" y="156.927">
      <tspan x="-44.2694" y="156.927">layout</tspan>
    </text>
  </g>
  <g>
    <rect style="fill: none; fill-opacity:0; stroke-width: 2.35099e-37; stroke: #ffffff" x="-47.0066" y="240.956" width="62.8" height="29.1667"/>
    <text font-size="16.9333" style="fill: #000000;text-anchor:middle;font-family:sans-serif;font-style:normal;font-weight:normal" x="-15.6066" y="260.706">
      <tspan x="-15.6066" y="260.706">thème</tspan>
    </text>
  </g>
  <g>
    <rect style="fill: none; fill-opacity:0; stroke-width: 2.35099e-37; stroke: #ffffff" x="8.71626" y="195.787" width="56.45" height="29.1667"/>
    <text font-size="16.9333" style="fill: #000000;text-anchor:middle;font-family:sans-serif;font-style:normal;font-weight:normal" x="36.9413" y="215.537">
      <tspan x="36.9413" y="215.537">menu</tspan>
    </text>
  </g>
  <g>
    <line style="fill: none; fill-opacity:0; stroke-width: 2; stroke: #000000" x1="-144.323" y1="107.351" x2="-493.277" y2="-152.96"/>
    <polygon style="fill: #000000" points="-499.289,-157.445 -488.284,-155.473 -493.277,-152.96 -494.263,-147.458 "/>
    <polygon style="fill: none; fill-opacity:0; stroke-width: 2; stroke: #000000" points="-499.289,-157.445 -488.284,-155.473 -493.277,-152.96 -494.263,-147.458 "/>
  </g>
  <g>
    <path style="fill: none; fill-opacity:0; stroke-width: 2; stroke: #000000" d="M -326.552 -157.488 C -244.512,16.471 -208.059,13.1996 -136.108,88.0963"/>
    <polygon style="fill: #000000" points="-130.912,93.5049 -141.446,89.7573 -136.108,88.0963 -134.234,82.8295 "/>
    <polygon style="fill: none; fill-opacity:0; stroke-width: 2; stroke: #000000" points="-130.912,93.5049 -141.446,89.7573 -136.108,88.0963 -134.234,82.8295 "/>
  </g>
  <g>
    <rect style="fill: none; fill-opacity:0; stroke-width: 2.35099e-37; stroke: #ffffff" x="-587.028" y="-195.011" width="123.15" height="36.2222"/>
    <text font-size="11.2889" style="fill: #000000;text-anchor:start;font-family:sans-serif;font-style:normal;font-weight:normal" x="-583.028" y="-180.511">
      <tspan x="-583.028" y="-180.511">impersonate</tspan>
      <tspan x="-583.028" y="-166.4">cas-apache-wrapper</tspan>
    </text>
  </g>
  <g>
    <path style="fill: none; fill-opacity:0; stroke-width: 2; stroke: #000000" d="M -184.167 158.45 C -205.802,154.342 -222.498,181.784 -239.164,183.228"/>
    <polygon style="fill: #000000" points="-246.636,183.875 -237.105,178.031 -239.164,183.228 -236.242,187.994 "/>
    <polygon style="fill: none; fill-opacity:0; stroke-width: 2; stroke: #000000" points="-246.636,183.875 -237.105,178.031 -239.164,183.228 -236.242,187.994 "/>
  </g>
  <g>
    <path style="fill: none; fill-opacity:0; stroke-width: 2; stroke: #000000" d="M -410.024,300.541 A 836.085,836.085 0 0 0 -169.901,247.004"/>
    <polyline style="fill: none; fill-opacity:0; stroke-width: 2; stroke: #000000" points="-175.309,254.498 -167.813,246.202 -178.947,245.183 "/>
  </g>
</svg>
